grf
version=1
nRows=6
nColumns=37
inDegrees=no
endheader
time	ground_force_1_vx	ground_force_1_vy	ground_force_1_vz	ground_force_1_px	ground_force_1_py	ground_force_1_pz	ground_moment_1_mx	ground_moment_1_my	ground_moment_1_mz	ground_force_2_vx	ground_force_2_vy	ground_force_2_vz	ground_force_2_px	ground_force_2_py	ground_force_2_pz	ground_moment_2_mx	ground_moment_2_my	ground_moment_2_mz	ground_force_3_vx	ground_force_3_vy	ground_force_3_vz	ground_force_3_px	ground_force_3_py	ground_force_3_pz	ground_moment_3_mx	ground_moment_3_my	ground_moment_3_mz	ground_force_4_vx	ground_force_4_vy	ground_force_4_vz	ground_force_4_px	ground_force_4_py	ground_force_4_pz	ground_moment_4_mx	ground_moment_4_my	ground_moment_4_mz
      1.71000000	      0.00000000	     -0.00000000	      0.00000000	      0.00000000	      0.00000000	      0.00000000	      0.00000000	      0.00000000	      0.00000000	      2.04898095	     15.00457001	   -323.95352173	   -290.17467471	  -1117.04765061	      0.00000000	      0.00000000	     -0.00000000	   3648.84879418	      5.29805929	    -18.34047745	   -367.53634644	   -274.84175727	   -685.18734973	      0.00000000	      0.00000000	     -0.00000000	  -3484.94045497	      0.00000000	     -0.00000000	      0.00000000	      0.00000000	      0.00000000	      0.00000000	      0.00000000	      0.00000000	      0.00000000
      1.72000000	      0.00000000	     -0.00000000	      0.00000000	      0.00000000	      0.00000000	      0.00000000	      0.00000000	      0.00000000	      0.00000000	      2.40601587	     14.73711491	   -321.51498413	   -291.28329424	  -1115.40867654	      0.00000000	      0.00000000	      0.00000000	   3510.94426395	      5.73849521	    -17.99004223	   -368.37701416	   -275.08879827	   -685.00800633	      0.00000000	      0.00000000	     -0.00000000	  -3689.34670591	      0.00000000	     -0.00000000	      0.00000000	      0.00000000	      0.00000000	      0.00000000	      0.00000000	      0.00000000	      0.00000000
      1.73000000	      0.00000000	     -0.00000000	      0.00000000	      0.00000000	      0.00000000	      0.00000000	      0.00000000	      0.00000000	      0.00000000	      3.42056108	     14.34999466	   -323.14007568	   -291.84232028	  -1115.46945117	      0.00000000	      0.00000000	      0.00000000	   3682.01780483	      5.47223461	    -17.72235346	   -368.00579834	   -275.46990549	   -686.04504737	      0.00000000	      0.00000000	     -0.00000000	  -3608.76462947	      0.00000000	     -0.00000000	      0.00000000	      0.00000000	      0.00000000	      0.00000000	      0.00000000	      0.00000000	      0.00000000
      1.74000000	      0.00000000	     -0.00000000	      0.00000000	      0.00000000	      0.00000000	      0.00000000	      0.00000000	      0.00000000	      0.00000000	      3.68811727	     14.19769955	   -323.40994263	   -292.75257016	  -1115.34760321	      0.00000000	      0.00000000	      0.00000000	   3895.67411731	      5.43695677	    -17.63410616	   -370.10070801	   -275.30297890	   -684.40408545	      0.00000000	      0.00000000	     -0.00000000	  -3813.71526127	      0.00000000	     -0.00000000	      0.00000000	      0.00000000	      0.00000000	      0.00000000	      0.00000000	      0.00000000	      0.00000000
      1.75000000	      0.00000000	     -0.00000000	      0.00000000	      0.00000000	      0.00000000	      0.00000000	      0.00000000	      0.00000000	      0.00000000	      3.77726746	     14.82397938	   -326.57101440	   -291.90618965	  -1115.11110244	      0.00000000	      0.00000000	      0.00000000	   3891.70119112	      4.43333572	    -17.04827729	   -370.69708252	   -274.55055930	   -684.40963976	      0.00000000	      0.00000000	     -0.00000000	  -3860.90805434	      0.00000000	     -0.00000000	      0.00000000	      0.00000000	      0.00000000	      0.00000000	      0.00000000	      0.00000000	      0.00000000
      1.76000000	      0.00000000	     -0.00000000	      0.00000000	      0.00000000	      0.00000000	      0.00000000	      0.00000000	      0.00000000	      0.00000000	      3.12422061	     14.59076118	   -325.40621948	   -292.00079828	  -1115.13339284	      0.00000000	      0.00000000	      0.00000000	   3613.88995139	      3.45971914	    -16.83934242	   -371.25152588	   -273.89997781	   -684.21172904	      0.00000000	      0.00000000	     -0.00000000	  -3834.52908305	      0.00000000	     -0.00000000	      0.00000000	      0.00000000	      0.00000000	      0.00000000	      0.00000000	      0.00000000	      0.00000000
